<svg xmlns="http://www.w3.org/2000/svg" width="44" height="44" viewBox="0 0 44 44" fill="none">
  <path d="M42 13.1111V30.8889C42 37.0253 37.0253 42 30.8889 42H13.1111C6.97462 42 2 37.0253 2 30.8889V13.1111C2 6.97462 6.97462 2 13.1111 2H30.8889C37.0253 2 42 6.97462 42 13.1111Z" fill="white" stroke="black" stroke-width="3" stroke-linecap="round" stroke-linejoin="round"/>
  <path d="M10.8889 33.1112V25.3334V17.5557" fill="white"/>
  <path d="M10.8889 33.1112V25.3334V17.5557" stroke="black" stroke-width="3" stroke-linecap="round" stroke-linejoin="round"/>
  <path d="M19.7778 33.1112V25.889V33.1112ZM19.7778 17.5557V25.889V17.5557ZM19.7778 25.889C19.7778 17.5557 33.1112 17.5557 33.1112 25.889V33.1112" fill="white"/>
  <path d="M19.7778 33.1112V25.889M19.7778 25.889V17.5557M19.7778 25.889C19.7778 17.5557 33.1112 17.5557 33.1112 25.889V33.1112" stroke="black" stroke-width="3" stroke-linecap="round" stroke-linejoin="round"/>
  <path d="M10.8889 10.9114L10.9111 10.8867L10.8889 10.9114Z" fill="white"/>
  <path d="M10.8889 10.9114L10.9111 10.8867" stroke="black" stroke-width="3" stroke-linecap="round" stroke-linejoin="round"/>
</svg>